# xmcd
#
# Track frame offsets:
# 150
# 20018
# 43750
# 61124
# 83729
# 105875
# 126547
# 143975
# 161056
# 180147
# 199304
# 219395
# 240428
#
# Disc length: 3469 seconds
#
#
# Revision: 3
# Processed by: cddbd v1.5.2PL0 Copyright (c) Steve Scherf et al.
# Submitted via: FreeRIP 2.945 
#
DISCID=ac0d8b0d
DTITLE=Luiz Marenco - Ao Vivo. Vol 2
DYEAR=1900
DGENRE=Gaúcha
TTITLE0=Rincão dos Touros
TTITLE1=Quando Alguém Vem na Estrada
TTITLE2=Andarilho
TTITLE3=De a Cavalo
TTITLE4=Sonho em Flor
TTITLE5=Esse Jeito de Domingo
TTITLE6=Pra o Meu Consumo
TTITLE7=Meu Rancho
TTITLE8=De Volta de Uma Tropeada
TTITLE9=Cova de Touro
TTITLE10=Romance do Pala Velho
TTITLE11=Décima do Potro Baio
TTITLE12=Alma de Estância e Querência
EXTD=
EXTT0=
EXTT1=
EXTT2=
EXTT3=
EXTT4=
EXTT5=
EXTT6=
EXTT7=
EXTT8=
EXTT9=
EXTT10=
EXTT11=
EXTT12=
PLAYORDER=
